<?xml version="1.0" encoding="UTF-8"?>
<svg version="1.1" viewBox="0 0 1024 1024" width="1024" height="1024" xmlns="http://www.w3.org/2000/svg">
<path transform="translate(609,229)" d="m0 0h22l17 3 15 5 15 8 14 10 8 8v2h2l10 14 8 16 4 12 3 19v20l-3 21-4 12-8 17-12 16-6 7-14 11-13 8-16 6-14 3-6 1h-20l-19-3-12-4-16-8-12-8-15-14-9-11-3-6-3-5-5-10-3-14-1-15v-18l2-19 6-17 9-17 9-12 10-11 13-10 19-10 16-5zm4 10-12 2-13 5-11 7-9 8-9 13-7 15-4 14-2 12v32l4 21 3 8 6 18 7 12 8 10 11 9 11 7 13 4 6 1h20l13-3 16-8 8-7v-2h2l9-14 5-12 5-21 1-7v-34l-4-21-5-16-6-14-10-14-10-10-10-7-11-5-16-3z" fill="#AD8943"/>
<path transform="translate(412,228)" d="m0 0h23l22 4 21 7 10 4 1 1 3 39v11h-8l-4-13-6-14-7-9-2-4-4-2-12-7-10-3-5-1h-28l-13 3-12 5-13 10-9 11-12 23-4 18-1 10v18l2 15 5 21 8 19 9 14 13 13 13 8 10 4 12 2h18l10-2 11-4 12-8 9-10 8-13 7-16 1-1h6v8l-8 40-2 3-21 8-22 6-18 2h-11l-23-3-19-6-16-8-11-8-12-11-11-14-6-12-6-17-2-14v-29l3-16 7-18 10-17 11-12 2-3h2l2-4 15-11 16-8 15-5 14-3z" fill="#AC8944"/>
<path transform="translate(475,515)" d="m0 0h43l15 2 12 6 10 10 5 11 2 7v20l-4 13-4 6-10 9-11 5-9 2h-48v-4l8-1 1-3v-74l-3-2-7-2-1-4zm24 7-1 9v61l1 7 2 1 23-1 11-4 7-8 4-10 1-4v-22l-3-10-5-8-6-5-8-4-7-2z" fill="#9F8747"/>
<path transform="translate(650,515)" d="m0 0h3v6l-8 1v61l4 9 1 3 4 2 5 2 11 1 12-3 6-7 2-5v-58l-1-4-7-3v-5h11l18 1-1 5-7 1-2 7-1 54-4 11-5 6-10 6-6 2-15 1-10-2-9-5-7-8-3-9-1-16v-46l-9-2v-5z" fill="#998749"/>
<path transform="translate(328,642)" d="m0 0 61 1 1 22-3 1-3-2-3-9-3-3-2-1-26-1v32l22-1 5-5 2-3 3 1v15l1 8-5 1-4-6-7-2-16-1-1 35 27-2 5-3 5-9 1-3 4-1 1 5-4 19-1 1h-59v-4l7-2v-76l-8-1-1-5z" fill="#9E8748"/>
<path transform="translate(420,515)" d="m0 0h8l10 27 16 40 5 12 2 5 7 2v5h-34v-4l10-2-2-9-5-13-32-1-3 10-1 3v10l8 1 1 4-1 1h-29v-4l6-2 4-7 8-21 7-19 5-12zm1 20-5 12-6 16-2 5v3h23l3-1-3-9-5-13-4-13z" fill="#98874A"/>
<path transform="translate(620,643)" d="m0 0h60l1 3 1 18-3 2-3-2-4-11-5-2-25-1 1 32 21-1 4-3 3-5 3 1v13l1 9-1 2h-4l-3-6-9-2-16-1v35l28-2 5-4 6-11 4-1 1 3-4 20-1 1h-60v-4l6-2 1-2 1-35v-35l-2-3-7-2z" fill="#98874A"/>
<path transform="translate(255,514)" d="m0 0h12l17 3 6 3 2 17v7l-4 1-2-1-3-10-4-6-7-5-9-2-11 1-9 4-6 5-6 12-2 10v13l3 12 5 9 5 5 6 5 5 2 11 1 10-2 8-6 7-14h3l1 1-1 10-3 12-4 3-15 4-15 1-10-2-9-4-8-6-5-5-4-5-4-8-2-10v-13l2-9 4-9 4-6 7-8 12-7 6-2z" fill="#9E8748"/>
<path transform="translate(748,514)" d="m0 0h15l13 3 1 1 2 17v5l-5 1-3-9-5-8-8-3h-12l-6 3-3 8 1 8 2 4 4 2 23 12 9 7 4 6 2 12-3 11-4 6-10 6-8 2h-13l-19-5-2-3-1-20 2-3h4l4 13 6 7 8 3h12l7-2 2-5 1-2v-12l-5-6-16-8-14-8-6-6-3-11 1-10 6-9 8-5z" fill="#9D8748"/>
<path transform="translate(379,872)" d="m0 0h268v7l-1 2h-267l-1-8z" fill="#017678"/>
<path transform="translate(532,643)" d="m0 0h72l1 26-2 1-3-1-4-13-5-4-17-3 1 71 2 4 9 1v5h-36l1-5 9-1 1-53 1-21-15 1-6 3-4 8-2 7-5-1 1-21z" fill="#94864B"/>
<path transform="translate(407,642)" d="m0 0h31l2 3-2 3-7 2-1 3-1 71 22-1 8-3 6-9 3-5 3 1v7l-3 17h-61l1-5 6-2v-37l1-35-4-3-4-1-1-5z" fill="#A58846"/>
<path transform="translate(333,515)" d="m0 0h5l1 5-7 2h-2l-1 9-1 68 22-1 9-3 5-8 2-7h5l-1 11-3 15h-61l1-5 7-1v-77l-8-2-1-5z" fill="#A58846"/>
<path transform="translate(483,642)" d="m0 0h32l1 5-6 2h-2l-1 4v65l1 6 8 1v6h-32l-1-4 2-2 7-2v-12l-2-7v-14l1-8v-32l-7-2-1-1z" fill="#A08747"/>
<path transform="translate(576,516)" d="m0 0h34v4l-9 4-2 5v67l2 4 8 1 1 4-1 1h-33l-1-4 9-3 1-2v-53l-2-1v-14l-7-8z" fill="#AA8944"/>
<path transform="translate(791,391)" d="m0 0h3l4 5-1 4-85 85-9 1h-5l2-4 5-5 7-6 2-3h2l2-4h2l2-4 4-4h2l2-4 4-4h2l2-4h2l2-4 6-5 2-3h2l2-4 6-5 6-7 6-5 6-7 4-4h2l2-4z" fill="#9C8748"/>
<path transform="translate(450,775)" d="m0 0h16l8 3 6 5 4 7 1 4v16l-4 9-8 7-8 3h-14l-10-5-7-8-2-4-1-6v-10l4-10 8-8zm2 4-5 3-4 4-3 10v8l3 10 4 6 5 4 3 1h8l8-4 4-7 1-9-2-16-6-7-6-3z" fill="#91864C"/>
<path transform="translate(340,761)" d="m0 0h11l-1 4-15 14-54 54-4-2-3-3 1-4 62-62z" fill="#9A8749"/>
<path transform="translate(634,775)" d="m0 0h16l5 2 1 2v12h-4l-4-9-3-2h-9l-4 1-1 5 3 6 17 9 5 4 2 5-1 10-4 6-7 3h-16l-7-3-1-11 1-5 4 1 4 10 2 2 9 1 5-2 1-2v-7l-7-6-13-7-4-5-1-8 3-7 4-4z" fill="#8A854E"/>
<path transform="translate(586,774)" d="m0 0 18 1 2 17h-5l-4-9-4-2-7-1 1 43 5 2 1 4h-21l-2-1 1-4 6-1v-21l1-22-10 1-4 4-3 6h-3l1-16z" fill="#808451"/>
<path transform="translate(504,775)" d="m0 0h36l2 1v13l-3 5-1 12-2 4-5-5-13-2 1 21 5 1v4h-20v-4l5-2v-43l-5-2zm14 5v19h12l3-2 1-3 2-1 2-6h-2v-5l-8-2z" fill="#8F864C"/>
<path transform="translate(375,775)" d="m0 0h20l1 2-1 2-4 1-1 6v38l15-2 4-5 3-6 3 1-1 15-1 2-13 1-24-1-1-3 2-3h4l-2-19v-10l1-15-5-2z" fill="#91864C"/>
<path transform="translate(484,647)" d="m0 0 7 1 2 2 1 6v66h-1l-2-16-1-2v-14l1-8v-32l-7-2z" fill="#017679"/>
<path transform="translate(682,515)" d="m0 0h11v1h-10v3l7 1 2 2 1 5v52l-1 6h-1l-1-58-1-4-7-3z" fill="#017679"/>
<path transform="translate(415,653)" d="m0 0 2 3v66l-2 2-1-31z" fill="#027678"/>
<path transform="translate(576,516)" d="m0 0h34l1 3h-2v-2h-32v3l6 1 3 4v50h-1v-31l-2-1v-14l-7-8z" fill="#017679"/>
<path transform="translate(333,515)" d="m0 0h5l-1 2h-31v2l6 1 4 4v73h-1l-1-74-8-2-1-5z" fill="#017679"/>
<path transform="translate(328,642)" d="m0 0 61 1 1 22-2-1v-20h-59v3h6l1 2-8-1-1-5z" fill="#017679"/>
<path transform="translate(518,779)" d="m0 0h16l5 5v4l3 1-3 5-1 12-2 4-2-2h2v-13h-2l-1 2 1-4h2l1-4 1-2h-2v-5l-8-1-10-1z" fill="#017679"/>
<path transform="translate(381,781)" d="m0 0h1v42h-1l-2-19v-10z" fill="#017679"/>
<path transform="translate(407,642)" d="m0 0h31l1 2h-31v3h5l3 3-1 2-4-3-4-1-1-5z" fill="#017679"/>
<path transform="translate(352,688)" d="m0 0h21l5 5 1 3 3 2-5-1-3-5-7-2-15-1z" fill="#017679"/>
<path transform="translate(642,688)" d="m0 0h23l5 5-1 3-2-4-9-2-16-1z" fill="#017679"/>
<path transform="translate(517,372)" d="m0 0 2 3 6 15 1 4-3-2-6-13z" fill="#017679"/>
<path transform="translate(375,775)" d="m0 0h20v1h-16l1 3-5-2z" fill="#197871"/>
</svg>
