<?xml version="1.0" encoding="UTF-8"?>
<svg version="1.1" viewBox="0 0 1024 1024" width="1024" height="1024" xmlns="http://www.w3.org/2000/svg">
<path transform="translate(588,327)" d="m0 0h30l17 4 16 8 11 8 10 10 9 13 5 10 5 16 2 11v24l-4 20-7 16-7 11-11 13-11 9-14 8-16 6-10 2h-28l-14-3-13-5-16-9-13-12-9-12-8-16-4-12-2-14v-19l3-17 6-16 6-11 9-12 4-5 11-9 13-8 12-5 10-3zm2 8-12 3-11 6-12 12-7 11-6 13-4 14-2 14v24l3 17 5 16 8 15 11 12 10 8 12 5 8 2h18l15-5 11-7 9-9 9-15 5-14 3-16v-30l-3-17-6-18-6-11-9-12-10-9-14-7-9-2z" fill="#C48E45"/>
<path transform="translate(420,327)" d="m0 0h28l26 4 12 3 1 23 1 18-5-1-7-13-10-11-11-7-11-4-21-2-13 2-14 6-11 9-8 9-8 16-4 12-3 18v17l3 19 6 18 8 14 5 6v2l3 1v2l4 2 9 6 8 4 12 3 14 1 13-2 13-5 10-7 7-7 6-10 3-6 5-1v8l-5 29-1 4-31 7-12 2h-28l-19-4-16-7-11-7-12-10-9-12-6-10-6-16-3-15v-27l3-14 6-16 9-14 9-10 9-8 11-7 13-6 13-4z" fill="#C48E45"/>
<path transform="translate(332,544)" d="m0 0h360v7h-360z" fill="#867852"/>
<path transform="translate(389,591)" d="m0 0h15l30 40v-36l-6-2v-2h17l-1 4h-2v10l-1 12-1 6-1 22v2h-5l-12-16-10-13-10-14-1-1v39l7 3v2l-9 1h-9l-1-3 5-2 1-2v-46l-6-1z" fill="#BC8D4A"/>
<path transform="translate(629,591)" d="m0 0h25l8 2 5 4 2 5-1 9-3 5-5 3h-3v3l3 1 10 16 3 4 5 2-1 3h-8l-7-4-11-17-3-4-4-1 1 21 6 2v2l-15 1-7-1v-2l5-2 1-5v-37l-1-6-5-2zm15 3v24h9l6-5 1-2v-8l-3-6-3-2z" fill="#BC8C48"/>
<path transform="translate(497,676)" d="m0 0h11l3 5 10 24v2h2l2-6 8-18 3-7h12l-1 3h-3v38l4 1v2h-15v-6l2-1v-3-18l-2 2-7 17-4 10-4-2-5-13-7-16-1 13v13l4 2v2h-13l1-3 3-1v-37l-4-1z" fill="#B98D4E"/>
<path transform="translate(347,590)" d="m0 0h20l7 2v15h-2l-5-9-4-3h-15l-5 3-3 1-3 9-1 8 1 11 4 9 2 4 6 3h13l4-1-1-16-7-2v-2h21v2l-4 1-1 19-7 3-4 1h-17l-8-4-6-5-4-7-1-4v-17l3-9 5-6 9-5z" fill="#BD8C47"/>
<path transform="translate(685,591)" d="m0 0h39v13h-3l-2-6-19-3v22l16-2 2-5 2-1v18l-3 1-2-5-6-2-9-1v24l21-3 3-2 2-6h2v14l-1 1h-41v-3l4-2 1-3v-42l-1-3-4-1z" fill="#B98B49"/>
<path transform="translate(565,591)" d="m0 0h19l-1 3h-3v38l3 8 5 3h12l4-2 3-5 1-18v-19l-1-4-5-1v-3h17l-1 3h-4v18l-1 23-3 7-6 5-2 1h-18l-8-4-4-5-1-5-1-40-5-1z" fill="#BB8A46"/>
<path transform="translate(481,590)" d="m0 0 3 2 6 17 12 31 2 3 4 2v2h-20v-3h5l-5-15v-2h-3v-6l-5-12-2-5-6 14-1 6 9 1 1 2-13 1-1 7h-2v8l3 1v3l-15 1h-3v-3l6-3 9-21 12-29z" fill="#BF8F4B"/>
<path transform="translate(753,590)" d="m0 0h16l5 3 1 11h-3l-5-8-4-2h-8l-3 1-1 4v7l5 5 14 8 6 7v12l-4 6-5 3-4 1h-15l-6-2-2-8v-5l3-1 4 8 5 3h11l4-4v-8l-5-5-16-10-4-6v-10l5-7z" fill="#BC8C49"/>
<path transform="translate(261,590)" d="m0 0h15l5 2 1 12-4-1-3-6-2-2-10-1-5 2v10l5 5 13 7 5 4 2 3 1 10-3 7-6 5-3 1h-17l-6-2-1-3v-11l3 2 2 6 5 2 1 1h11l4-4 1-6-4-6-10-6-8-5-3-4-1-10 3-7 6-4z" fill="#BE8E4B"/>
<path transform="translate(380,676)" d="m0 0h16l-1 3h-3v16h19l-1-15-4-2v-2h17v2l-4 2v37l4 1v2h-17l1-3 3-1 1-17-8 1-11-1 1 17 3 2v2h-16l1-3h3v-38h-4z" fill="#B1884A"/>
<path transform="translate(509,591)" d="m0 0h47l2 7 1 5h-4l-5-5-7-2-7-1 1 49 6 1v2l-13 1h-8v-3l4-2 1-2 1-46-13 2-6 7h-3l1-8z" fill="#BC8B46"/>
<path transform="translate(453,676)" d="m0 0h16l6 4 4 5 2 8-1 13-4 8-5 4-4 2-8 1-9-2-6-5-4-9v-14l3-7 5-5zm3 3-5 3-3 6v18l4 8 3 3 9 1 6-4 2-4 1-6v-11l-2-8-5-6z" fill="#BE9254"/>
<path transform="translate(564,676)" d="m0 0h29l1 10-3 2-4-6-11-2-1 16 10-1 5-4 1 4v12h-2l-2-6-4-1h-7v17l13-2 3-2 2-4 3-1 1 3-2 9h-32l1-3 2-1v-36l-3-2z" fill="#BA8A46"/>
<path transform="translate(296,591)" d="m0 0h20v3h-5v47l3 3 2 1v2h-20l1-3 4-2v-46l-5-3z" fill="#C18D44"/>
<path transform="translate(623,676)" d="m0 0h16l1 1v9h-3l-2-5-5-1-7 2v6l1 3 5 2 11 7 2 4v8l-3 5-5 3-10 1-9-2-2-11 4 2 3 4v2l4 1h8l3-4-1-7-5-4-9-5-4-4v-11l4-5z" fill="#C39556"/>
<path transform="translate(406,676)" d="m0 0h17v2l-4 2v37l4 1v2h-17l1-3 3-1 1-18h-20v-1h21l-1-4-1-13-4-2z" fill="#BF975C"/>
<path transform="translate(536,676)" d="m0 0h12l-1 3h-3v38l4 1v2h-15v-2l3-1 1-34-1-1-1 5h-2l-1 3 1-7z" fill="#BB8E4D"/>
<path transform="translate(453,676)" d="m0 0 9 1 3 2-12 2-4 7v18l4 8 5 4-1 2-7-1-6-5-4-9v-14l3-7 5-5z" fill="#B68948"/>
<path transform="translate(500,679)" d="m0 0 5 3 1 5-1 17v12l4 2v2h-13l1-3 3-1z" fill="#A8864F"/>
<path transform="translate(428,591)" d="m0 0h17l-1 4h-2v10l-1 12-1 6-1 13h-1l-1-35-2-1-1-5-6-2z" fill="#887851"/>
<path transform="translate(357,590)" d="m0 0h10l7 2v15h-2l-5-9-4-3-15-1 3-2z" fill="#B58B4C"/>
<path transform="translate(758,590)" d="m0 0h11l5 3 1 11h-3l-5-8-9-5z" fill="#B8955E"/>
<path transform="translate(270,590)" d="m0 0 10 1 1 1 1 12-4-1-3-6-2-2-10-2v-1z" fill="#B18A4D"/>
<path transform="translate(437,599)" d="m0 0h1v34h-3v-33z" fill="#E8D4B9"/>
<path transform="translate(536,682)" d="m0 0 2 1-1 34-4 1v-4l2-1v-3-18h-2v-5h2z" fill="#877851"/>
<path transform="translate(428,591)" d="m0 0h13l3 2-4 2-3 6-2-1-1-5-6-2z" fill="#C29B62"/>
<path transform="translate(589,691)" d="m0 0 2 1v15h-2l-2-6-3-2-9-1v-1h10v-2z" fill="#C0AC89"/>
<path transform="translate(595,710)" d="m0 0h1v10h-13l-9-1v-1l16-2 4-3z" fill="#D1B48A"/>
<path transform="translate(613,708)" d="m0 0 4 2 3 4v2l4 1v3l-9-1z" fill="#B7945D"/>
<path transform="translate(575,678)" d="m0 0 12 1 2 1v-2h3l2 2v6l-3 2-4-6-11-2v5h-1l-1-6z" fill="#947C4D"/>
<path transform="translate(634,676)" d="m0 0h5l1 1v9h-3l-2-7h-2z" fill="#BD9C69"/>
<path transform="translate(574,677)" d="m0 0h19v8h-1v-7h-3v2l-13-1z" fill="#E5CEAF"/>
<path transform="translate(467,627)" d="m0 0h5l-4 1-1 7h-2v8l3 2-5-1-1-5z" fill="#867852"/>
<path transform="translate(596,708)" d="m0 0 2 1-1 8-2-4-5 4h-8v-1l9-2 3-5z" fill="#897950"/>
<path transform="translate(531,688)" d="m0 0 2 2-1 7-2 2-2-5z" fill="#AA874F"/>
<path transform="translate(633,676)" d="m0 0m-7 1h7v2l2 1-12 1v-2z" fill="#8F7A4F"/>
<path transform="translate(632,717)" d="m0 0 2 1v2l-10 1v-3z" fill="#CEBB9C"/>
</svg>
