<?xml version="1.0" encoding="UTF-8"?>
<svg version="1.1" viewBox="0 0 1024 1024" width="1024" height="1024" xmlns="http://www.w3.org/2000/svg">
<path transform="translate(618,235)" d="m0 0h24l20 4 15 5 14 7 14 10 6 5 7 8 8 10 10 18 6 19 2 9v36l-4 19-7 19-10 17-10 11-6 7-19 13-16 8-16 5-14 2h-21l-17-2-21-7-15-8-11-8-10-9-10-10-10-17-5-12-3-7-3-18v-31l4-20 6-16 10-18 12-14 9-9 14-10 16-8 11-4 12-3zm-2 11-15 4-12 6-14 12-8 11-8 15-5 16-2 13v36l4 20 3 10 7 19 6 11 7 10 9 10 13 9 11 5 14 3h16l16-3 12-5 8-6 10-9 9-13 5-12 5-16 3-26v-22l-4-25-7-21-9-17-10-13-7-7-11-7-8-4-15-4z" fill="#B89249"/>
<path transform="translate(404,235)" d="m0 0h31l19 3 28 8 10 4 1 3 2 33 1 9v9h-9l-5-18-7-13-7-9-10-8-13-6-13-3h-26l-17 4-16 8-7 6h-2l-2 4-7 8-9 15-7 17-4 18-1 11v14l2 19 5 20 7 17 10 16 14 15 11 7 10 5 12 3h29l12-4 10-5 13-10 10-11 7-12 4-11 2-6 8 1-1 9-8 41-2 5-14 6-15 5-15 3-15 2h-18l-19-2-19-5-18-8-15-9-13-12-7-7-8-11-7-14-4-13-3-17-1-19 2-21 5-18 8-17 8-12 12-13 7-7 14-10 16-8 14-5z" fill="#B89248"/>
<path transform="translate(290,547)" d="m0 0h23l3 5 15 33 12 26 4 9 3-4 9-21 16-35 6-13h21l1 4-2 2-6 2-2 6 1 41 1 30 2 3 7 2 1 5-2 1-33-1 1-5 7-2 1-1v-62l-1-1-8 18-7 18-13 26-3 10-7-2-7-16-24-54v57l2 7 8 3-1 4h-28l1-5 7-1 1-4v-75l-1-2-8-3-1-3z" fill="#AE914D"/>
<path transform="translate(455,547)" d="m0 0h23l11 4 8 5 6 5 7 11 4 13v21l-3 10-6 10-7 7-8 6-11 4-4 1h-18l-12-3-8-6-8-7-7-11-4-11v-21l4-12 7-11 4-2 1-3 7-5 9-4zm3 6-9 3-7 6-7 14-2 11v9l2 13 5 12 7 9 5 4 10 4h11l9-4 8-7 6-10 3-12v-15l-3-14-5-9-4-5-11-8-6-1z" fill="#B2914B"/>
<path transform="translate(220,547)" d="m0 0h21l10 3 11 7 8 9 6 12 2 9v15l-3 12-4 8-8 10-10 7-10 4-6 1h-13l-13-3-10-6-9-9-6-10-3-9-1-5v-12l3-13 5-10 9-10 9-6 7-3zm1 6-9 4-6 5-6 12-3 13v10l2 13 7 14 7 8 9 5 4 1h11l9-4 8-7 5-8 3-9 1-6v-14l-2-10-4-10-8-10-9-6-6-1z" fill="#B69249"/>
<path transform="translate(330,803)" d="m0 0h88l281 1 1 6-1 1h-369z" fill="#308181"/>
<path transform="translate(808,546)" d="m0 0 4 1 4 9 20 49 8 21 4 8 2 2 5 1-1 5h-31l-1-4 8-3-1-6-6-16v-2l-33 1-4 10-2 6v7l6 3v4h-26l-1-3 5-3h2l2-5 8-19 26-65zm-3 23-7 18-5 13v3l6 1h21l-3-9-7-18-3-8z" fill="#AE914D"/>
<path transform="translate(653,547)" d="m0 0h6l8 19 8 17 4 13 11 28 4 9v2l7 2 1 4-1 1h-31l-1-4 7-2 1-4-6-16-1-4-34-1-3 11-3 7v7l7 1 1 3-1 2h-27l-1-3 5-3 5-5 11-27 12-30 10-26zm-1 22-6 16-6 14v5h27l-3-9-8-20-2-6z" fill="#AF914C"/>
<path transform="translate(742,435)" d="m0 0h9l1 1v69l-2 1-65-1v-10h27v-29l2-1 28 1z" fill="#B5924A"/>
<path transform="translate(527,547)" d="m0 0h34v5l-9 4-1 5-1 74 27-1 9-3 3-3 4-10 3-1 3 2-3 20-2 3h-66l-1-4 7-2h2v-22l-2-18v-31l1-1 1-8-7-2-2-2z" fill="#B2914B"/>
<path transform="translate(723,547)" d="m0 0h34l1 3-1 3-8 1-1 6v42l-1 36-3 13-6 9h-2v2l-11 5h-13l-7-4 2-11 2-1 8 5 8 1 5-5 2-6 1-7v-84l-10-2-1-5z" fill="#B3924B"/>
<path transform="translate(513,683)" d="m0 0h5l5 12 20 50 4 8 6 3-1 4h-26l1-5 4-1-1-7-4-11-26-1-3 10-1 7 1 2 5 2-1 4h-23v-4l6-2 4-8 15-38 6-14 3-10zm0 19-4 8-6 17-1 2 22 1-1-4-7-19-2-5z" fill="#A7904F"/>
<path transform="translate(328,684)" d="m0 0h54l1 1 1 18h-5l-4-8-7-3-19-1v27l22-1 1-6h7l-1 10v10l-5 1-3-5-21-2v26l2 3 7 2-1 4h-28l-1-3 7-3 1-2v-61l-7-3z" fill="#A49051"/>
<path transform="translate(669,683)" d="m0 0h13l13 4 1 1v19l-4-1-4-10-1-3-9-3h-10l-4 2-3 6 1 6 5 6 16 8 10 7 4 6 1 3v11l-4 8-6 5-9 3h-16l-11-4-3-4v-16h3l6 11v2l5 2 6 2h11l6-5 1-2-1-9-5-6-20-10-6-5v-2h-2l-2-5v-12l3-6 8-7z" fill="#AD914D"/>
<path transform="translate(563,684)" d="m0 0h65l1 22h-5l-3-9-4-4-3-1-12-1 1 63 8 2-1 4h-28l1-5 6-2 1-3v-23l1-37-2 1-13 1-5 3-3 11h-5z" fill="#A59050"/>
<path transform="translate(404,684)" d="m0 0h26v4l-5 1-1 3-1 62 21-1 8-3 5-11 5 1-2 13-2 7h-54l-1-4 7-2 1-3v-57l-1-3-6-2z" fill="#AB914E"/>
<path transform="translate(713,465)" d="m0 0 29 1v30h-57v-1h27v-29z" fill="#308181"/>
<path transform="translate(536,556)" d="m0 0 2 3v71h-1l-1-16-2-18v-31l1-1z" fill="#308181"/>
<path transform="translate(372,711)" d="m0 0h7l-1 10v10l-5 1 3-1v-19h-3l-1 3z" fill="#308181"/>
</svg>
