<?xml version="1.0" encoding="UTF-8"?>
<svg version="1.1" viewBox="0 0 1024 1024" width="1024" height="1024" xmlns="http://www.w3.org/2000/svg">
<path transform="translate(455,241)" d="m0 0h26l19 3 24 7 10 4 2 20v22l-6-1-5-15-7-11-10-9-10-6-12-4-6-1h-22l-14 3-15 8-10 9-9 13-5 12-5 18-2 17v15l2 17 4 16 5 12 7 12 12 13 11 6v-21l2-11 5-15 9-17 12-14 11-9 14-8 11-4 13-3 11-1 21 1 15 4 17 8 14 11 9 10 7 10 8 16 4 15 1 8v24l-3 16-6 16-6 11-9 11-10 10-15 10-12 5-14 4-9 1h-23l-18-5-13-6-11-7-12-11-10-13-8-16-4-15-18-6-15-9-15-13-9-12-7-12-5-14-3-14-1-20 2-19 4-15 9-17 8-11 12-12 15-10 15-6 11-3zm68 86-11 2-10 4-11 8-7 8-9 17-5 18-2 11v32l5 24 6 16 7 11 10 10 10 6 10 4 12 2 17-1 13-5 10-6 8-8 6-10 4-8 5-16 3-18v-30l-4-20-6-15-9-14-8-8-10-7-9-4-9-2z" fill="#AD8C33"/>
<path transform="translate(587,579)" d="m0 0h38l13 2 12 4 9 6 5 5 6 9 3 11v11l-3 12-4 8-7 8-11 7-12 4-48 1v-4l4-2 2-6v-61l-2-9-4-2zm23 7v74h17l10-2 9-6 6-9 3-10 1-16-3-12-5-8-7-6-11-4-5-1z" fill="#A48A36"/>
<path transform="translate(271,799)" d="m0 0h483v6l-5 1-477-1z" fill="#196863"/>
<path transform="translate(663,224)" d="m0 0h10v296h-9l-1-3z" fill="#99873A"/>
<path transform="translate(143,579)" d="m0 0h31l13 2 12 5 7 8 2 5v15l-4 8-7 7-12 5-5 1h-14l-1 6v14l1 6 6 2v4h-30v-3l5-4 1-4v-65l-1-6-5-3zm22 7-1 23v19l2 1h8l9-2 7-6 2-7v-15l-4-8-7-4-6-1z" fill="#A58A36"/>
<path transform="translate(731,579)" d="m0 0h28v5l-4 2-1 2v57l4 9 6 4 3 1h16l7-3 5-6 2-5v-57l-4-4-3-1 1-4h21l1 2-3 3-4 3-1 59-4 10-5 5-8 5-8 2h-15l-10-3-9-6-6-8-2-7-1-55-2-4-4-3z" fill="#A18937"/>
<path transform="translate(530,580)" d="m0 0h9l8 20 3 6h1l4 14 10 25 5 12 1 3 5 2 2 4-4 1h-26v-4l3-2v-7l-6-16h-28l-6 18 1 5 4 3-1 3h-22v-4l6-3 6-15 14-36 8-20zm0 19-4 11-3 10-4 10 1 1h22l-1-6-8-22-1-4z" fill="#A28937"/>
<path transform="translate(250,579)" d="m0 0 4 4 8 21 19 48 5 8 4 2 1 4-2 1h-28v-4l4-1-2-11-5-13-28-1-3 11-2 6v6l5 4-1 3h-19l-4-1 2-4 5-3 7-18 11-28 10-26 3-7zm-7 20-8 24-2 5v3h23l-3-10-8-22z" fill="#A38A36"/>
<path transform="translate(367,579)" d="m0 0h22l12 3 5 2 1 19-4 1-3-4-4-7-6-4-10-3h-11l-7 3-5 4-6 12-2 10v14l3 12 4 8 5 5 9 5 12 1 8-2 7-5 6-12 3-1 1 1v15l-1 6-11 4-9 2h-18l-13-4-11-8-7-8-5-10-1-6v-17l3-10 7-11 3-1 2-4 7-5 9-4z" fill="#A58A36"/>
<path transform="translate(847,579)" d="m0 0h17l11 3 1 1 1 17-4 1-3-5-5-7-7-3h-10l-6 4-1 2v9l6 7 22 12 8 7 4 8 1 11-3 9-5 6-6 4-10 3h-15l-14-4-4-3-1-5v-14h4l5 8 5 6 6 3 5 1h7l8-3 3-4 1-3v-7l-4-6-7-5-16-8-6-4-6-7-3-8 2-13 7-8 8-4z" fill="#A58A36"/>
<path transform="translate(423,579)" d="m0 0h23l5 1-1 4-4 3-1 58-1 15 18-1 9-2 5-5 5-10 2-1 3 3-3 19-1 3-60 1 1-4 3-3v-71l1-4-5-2z" fill="#A68A36"/>
<path transform="translate(687,579)" d="m0 0h27v4l-4 3-1 3v68l2 4 4 4v2h-29l1-4 2-2 1-8v-67l-4-3z" fill="#A78B35"/>
<path transform="translate(526,709)" d="m0 0h9l4 5 10 16 4-4 11-17h9l1 48h-9l-2-3-1-5 1-16 1-5-3 1-9 14-1 2h-3l-6-10-6-9v-3h-2l1 33-1 1h-7l-1-1z" fill="#A08937"/>
<path transform="translate(656,708)" d="m0 0 7 1 12 16 10 13 1 1 1-7v-23l7-1 2 1v48h-8l-14-18-8-11-1-1-1 7v22l-1 1h-8l-1-2 1-46z" fill="#9B8839"/>
<path transform="translate(412,708)" d="m0 0 21 1 9 3 5 6 1 4v8l-3 6-5 5 8 11 3 5-3 1-8-1-11-15-11-1 1 15-1 1h-7l-1-1v-47zm7 9-1 1v16h12l6-2 3-3v-7l-3-4-6-1z" fill="#9F8938"/>
<path transform="translate(534,380)" d="m0 0 5 1-2 14-5 30-12 5-21 6-11 2h-8v-2h-2l-1-8 15-2 9-4 10-6 9-8 7-11 6-16z" fill="#A88B35"/>
<path transform="translate(629,708)" d="m0 0h3v9l-2 1-24-1 1 11 22 1 1 1v7l-7 1-17-1 1 11 25 1 1 7-1 1h-33l-1-1v-47z" fill="#9C8839"/>
<path transform="translate(361,709)" d="m0 0h9l13 30 7 16v2h-9l-3-5-2-5h-22l-4 10h-8l-1-3 12-27 7-17zm3 12-6 15v2h14l-2-4-1-6-3-7z" fill="#9A8739"/>
<path transform="translate(242,709)" d="m0 0h9l5 10 14 33v5h-7l-3-3-2-8h-23l-3 10-1 1h-8l1-7 10-22zm4 11-7 17v1h15l-2-6-5-12z" fill="#9C8839"/>
<path transform="translate(292,708)" d="m0 0 22 1 8 3 4 4 2 7-1 9-6 7-5 2-13 1-3-1v15l-1 1h-7l-2-7 1-41zm8 9v17h12l5-3 2-3-1-8-3-2z" fill="#98873A"/>
<path transform="translate(788,708)" d="m0 0 11 1 8 4-3 6-3 1-8-3h-8l-3 2v5l5 3 13 4 6 4 2 3v10l-4 6-8 3h-12l-9-4-4-2 1-4 3-3 5 2 8 3 9-1 2-2-1-6-8-3-11-4-5-4-2-5 1-6 4-6 5-3z" fill="#A18937"/>
<path transform="translate(716,709)" d="m0 0h39v7l-1 1h-15l1 8v31l-1 1h-7l-1-1v-39h-15z" fill="#8F853D"/>
<path transform="translate(467,709)" d="m0 0h39v7l-1 1h-14v39l-1 1h-7l-1-1v-38l-15-1-1-5z" fill="#92853C"/>
<path transform="translate(427,585)" d="m0 0 2 1 1 4v66l-2 5-4 2 2-3v-71z" fill="#196863"/>
<path transform="translate(687,583)" d="m0 0 5 2 1 2v71l-3 5-2-1 2-6v-70z" fill="#196863"/>
<path transform="translate(564,721)" d="m0 0h2v33l-2 2-2-7 1-16 1-5h-3l2-4z" fill="#196863"/>
</svg>
